HIERARCHY
ROOT Hips
{
	OFFSET 0.00000 0.00000 0.00000
	CHANNELS 6 Xposition Yposition Zposition Yrotation Zrotation Xrotation 
	JOINT Lumbar
	{
		OFFSET 0 0 0
		CHANNELS 3 Zrotation Xrotation Yrotation
		JOINT Neck
		{
			OFFSET 0.00 0.2701 0.00
			CHANNELS 3 Zrotation Xrotation Yrotation
			End Site
			{
				OFFSET 0.00 0.1379 0.00
			}
		}
		JOINT RightShoulder
		{
			OFFSET 0.0119 0.2289 0.1181
			CHANNELS 3 Zrotation Xrotation Yrotation
			JOINT RightElbow
			{
				OFFSET 0.00 -0.1475 0.00
				CHANNELS 2 Zrotation Yrotation
				JOINT RightWrist
				{
					OFFSET 0.00 -0.1605 0.00
					CHANNELS 2 Zrotation Xrotation
					End Site
					{
						OFFSET 0.0040 -0.1068 0.0006
					}
				}
			}
		}
		JOINT LeftShoulder
		{
			OFFSET 0.0119 0.2289 -0.1181
			CHANNELS 3 Zrotation Xrotation Yrotation
			JOINT LeftElbow
			{
				OFFSET 0.00 -0.1475 0.00
				CHANNELS 2 Zrotation Yrotation
				JOINT LeftWrist
				{
					OFFSET 0.00 -0.1605 0.00
					CHANNELS 2 Zrotation Xrotation
					End Site
					{
						OFFSET 0.0040 -0.1068 -0.0006
					}
				}
			}
		}
	}
	JOINT RightHip
	{
		OFFSET 0.0316 -0.0424 0.0458
		CHANNELS 3 Zrotation Xrotation Yrotation
		JOINT RightKnee
		{
			OFFSET 0.00 -0.2438 0.00
			CHANNELS 1 Zrotation
			JOINT RightAnkle
			{
				OFFSET 0.00 -0.2449 0.00
				CHANNELS 3 Zrotation Xrotation Yrotation
				End Site
				{
					OFFSET 0.1237 -0.0542 0.0051
				}
			}
		}
	}
	JOINT LeftHip
	{
		OFFSET 0.0316 -0.0424 -0.0458
		CHANNELS 3 Zrotation Xrotation Yrotation
		JOINT LeftKnee
		{
			OFFSET 0.00 -0.2438 0.00
			CHANNELS 1 Zrotation
			JOINT LeftAnkle
			{
				OFFSET 0.00 -0.2449 0.00
				CHANNELS 3 Zrotation Xrotation Yrotation
				End Site
				{
					OFFSET 0.1237 -0.0542 -0.0051
				}
			}
		}
	}
}
MOTION
Frames: 25
Frame Time: 0.02
-0.00025 -0 -0.00019 172.25245 -44.69431 -0.39753 56.02815 1.9481 2.36121 -4.58223 -6.54518 -0.08204 130.05466 -72.52433 -85.18586 7.84692 74.18392 0.79278 -9.18868 155.17073 74.66273 80.96673 8.33155 -65.66289 5.2937 10.0521 49.05422 -4.94942 -6.25378 -18.96776 -7.9593 -4.81049 -3.2899 52.46599 8.14023 0.77449 -24.1003 -9.71923 5.34385 3.65754
-0.00012 0 -0.00018 172.29851 -44.66891 -0.37282 56.02063 1.87605 2.35489 -4.68157 -6.25147 -0.08384 129.87431 -72.52123 -85.36794 7.85734 74.19989 0.83533 -9.14969 155.21897 74.62458 81.18791 8.33397 -65.66028 5.37779 9.99599 49.0378 -4.96603 -6.28049 -18.97255 -7.96613 -4.81853 -3.29226 52.45894 8.15068 0.88247 -24.10137 -9.70933 5.33265 3.65157
1e-05 1e-05 -0.00018 172.34442 -44.64355 -0.34817 56.0131 1.80418 2.34859 -4.78073 -5.95845 -0.08563 129.6942 -72.51817 -85.54987 7.86764 74.21578 0.87774 -9.11074 155.267 74.5866 81.40846 8.33641 -65.65786 5.46159 9.9401 49.02142 -4.98251 -6.30653 -18.97733 -7.973 -4.82659 -3.29464 52.45188 8.16114 0.99037 -24.10245 -9.69944 5.32148 3.64561
0.00014 1e-05 -0.00018 172.39034 -44.61823 -0.32354 56.00559 1.73234 2.34229 -4.87979 -5.6656 -0.08743 129.51444 -72.51508 -85.73146 7.87803 74.2317 0.92016 -9.07186 155.31513 74.54856 81.6289 8.33884 -65.65511 5.54546 9.88417 49.00505 -4.99905 -6.33304 -18.98211 -7.97983 -4.83461 -3.297 52.44485 8.17156 1.09805 -24.10352 -9.68957 5.31032 3.63966
0.00027 2e-05 -0.00017 172.4364 -44.59287 -0.29886 55.99811 1.66035 2.33594 -4.97901 -5.37216 -0.08922 129.33434 -72.51195 -85.91305 7.88857 74.24772 0.9627 -9.03297 155.36335 74.51038 81.85012 8.34122 -65.6526 5.62955 9.82803 48.98862 -5.01576 -6.36052 -18.98689 -7.98659 -4.84258 -3.29931 52.43783 8.18198 1.20573 -24.10459 -9.67969 5.29914 3.6337
0.00041 3e-05 -0.00017 172.482 -44.56751 -0.27428 55.99048 1.58875 2.32977 -5.07801 -5.08006 -0.09102 129.15412 -72.50907 -86.09568 7.89835 74.26332 1.00485 -8.99387 155.41087 74.47285 82.06934 8.34374 -65.65063 5.71268 9.77264 48.97234 -5.03175 -6.38357 -18.99167 -7.99368 -4.85082 -3.30184 52.4307 8.19252 1.31409 -24.10567 -9.66978 5.28797 3.62773
0.00054 3e-05 -0.00017 172.52848 -44.54219 -0.24953 55.98316 1.51643 2.32326 -5.17733 -4.78555 -0.09281 128.9749 -72.50563 -86.27602 7.9097 74.27975 1.04775 -8.95529 155.46015 74.43392 82.29188 8.34608 -65.6463 5.79787 9.71582 48.9558 -5.04915 -6.41532 -18.99644 -8.00011 -4.85854 -3.30395 52.4238 8.20279 1.42095 -24.10673 -9.65994 5.2768 3.6218
0.00067 4e-05 -0.00016 172.57415 -44.51682 -0.22492 55.97554 1.44478 2.31706 -5.27637 -4.4933 -0.09461 128.79374 -72.50284 -86.45846 7.9195 74.2954 1.08994 -8.91611 155.50706 74.39654 82.51219 8.34841 -65.64645 5.88075 9.66029 48.93948 -5.06531 -6.43937 -19.00122 -8.00712 -4.86671 -3.30642 52.41668 8.21331 1.52919 -24.10781 -9.65003 5.26563 3.61583
0.0008 4e-05 -0.00016 172.61883 -44.49143 -0.20051 55.96758 1.37388 2.31122 -5.37507 -4.20353 -0.0964 128.6141 -72.50028 -86.64366 7.92781 74.31017 1.13137 -8.87667 155.55408 74.36 82.72657 8.35142 -65.64299 5.96249 9.60643 48.92347 -5.07971 -6.45263 -19.00601 -8.01498 -4.87555 -3.30943 52.40934 8.22417 1.6392 -24.10889 -9.64004 5.25446 3.60979
0.00093 5e-05 -0.00016 172.6692 -44.46627 -0.17504 55.96167 1.29849 2.30325 -5.47575 -3.8986 -0.0982 128.43742 -72.4947 -86.81358 7.94589 74.3302 1.17746 -8.84011 155.6095 74.31546 82.96545 8.35259 -65.63299 6.05584 9.54323 48.90583 -5.10348 -6.52382 -19.01075 -8.01835 -4.88086 -3.30962 52.40339 8.23316 1.73927 -24.10992 -9.63054 5.24327 3.6041
0.00106 5e-05 -0.00015 172.70758 -44.44055 -0.15178 55.95138 1.23267 2.29981 -5.57224 -3.62628 -0.1 128.24707 -72.49658 -87.0153 7.94261 74.33904 1.21355 -8.7966 155.64141 74.28982 83.15876 8.35632 -65.65422 6.12146 9.49959 48.89151 -5.10797 -6.47553 -19.01559 -8.03095 -4.89342 -3.3156 52.39443 8.24603 1.86015 -24.11109 -9.62002 5.23213 3.59769
0.00118 6e-05 -0.0001 172.71246 -44.41401 -0.13488 55.92946 1.19247 2.30888 -5.65705 -3.43907 -0.10185 128.07068 -72.51039 -87.30689 7.88612 74.3171 1.22219 -8.74077 155.64097 74.30058 83.172 8.37785 -65.6103 6.13467 9.51002 48.8875 -5.0549 -6.07285 -19.02073 -8.07123 -4.92772 -3.33892 52.37775 8.27012 2.03947 -24.11256 -9.6066 5.22113 3.58925
0.00131 7e-05 -5e-05 172.7054 -44.38678 -0.12013 55.90304 1.16198 2.32258 -5.73763 -3.28542 -0.1037 127.86497 -72.5333 -87.62843 7.80716 74.28359 1.2199 -8.67646 155.60084 74.3336 83.14706 8.39983 -65.61965 6.11416 9.53906 48.88666 -4.98328 -5.55472 -19.02598 -8.12035 -4.96896 -3.36781 52.35797 8.29789 2.23892 -24.11422 -9.59222 5.21022 3.58013
0.00144 7e-05 0 172.70416 -44.3594 -0.10425 55.87846 1.12749 2.334 -5.82031 -3.11928 -0.10555 127.6468 -72.55762 -87.93649 7.73497 74.25588 1.22379 -8.61193 155.57079 74.36598 83.17893 8.41474 -65.71089 6.09551 9.56056 48.88352 -4.92325 -5.10726 -19.03108 -8.16385 -5.00576 -3.39319 52.33922 8.32379 2.42893 -24.11583 -9.57832 5.19924 3.57133
0.00156 8e-05 5e-05 172.70119 -44.33399 -0.08912 55.85486 1.09134 2.34582 -5.90244 -2.94156 -0.10744 127.56235 -72.55848 -88.25026 7.67733 74.22731 1.22626 -8.5656 155.6159 74.35667 83.05505 8.45915 -65.37932 6.13975 9.58217 48.88379 -4.85004 -4.58437 -19.03646 -8.21405 -5.04789 -3.42265 52.32197 8.35105 2.62233 -24.11722 -9.56409 5.18824 3.56238
0.00169 8e-05 0.00011 172.69904 -44.3043 -0.0728 55.828 1.0609 2.35834 -5.98447 -2.79591 -0.10922 127.16119 -72.61047 -88.55145 7.58399 74.19599 1.22445 -8.4781 155.44285 74.44162 83.23286 8.4416 -65.9097 6.03735 9.603 48.87797 -4.79963 -4.18914 -19.04148 -8.25251 -5.08071 -3.44503 52.30099 8.37571 2.8108 -24.11919 -9.55048 5.17745 3.55371
0.00183 8e-05 0.00018 172.70162 -44.26318 -0.0541 55.79436 1.04426 2.36806 -6.06858 -2.73026 -0.11072 126.15562 -72.79735 -88.847 7.3984 74.16963 1.25078 -8.28773 155.11995 74.75795 84.33902 8.25865 -69.07698 5.60707 9.65714 48.85263 -4.81907 -4.19389 -19.04401 -8.25527 -5.08488 -3.44553 52.26928 8.39807 3.00444 -24.12198 -9.53708 5.16583 3.54486
0.00198 6e-05 0.00027 172.70543 -44.21781 -0.03397 55.75728 1.03303 2.37917 -6.15197 -2.69566 -0.11211 124.78059 -73.034 -89.10119 7.17773 74.13516 1.26457 -8.05335 154.4938 75.16926 85.71235 8.01265 -73.06032 5.01988 9.70063 48.82154 -4.8617 -4.32806 -19.04652 -8.24603 -5.07959 -3.43884 52.2342 8.41694 3.1889 -24.12549 -9.52445 5.15456 3.53644
0.00213 4e-05 0.00035 172.7091 -44.17418 -0.01342 55.7212 1.01897 2.39176 -6.23546 -2.64719 -0.11352 123.40557 -73.25322 -89.37689 6.97229 74.10301 1.26169 -7.83499 153.71907 75.55684 86.93463 7.79122 -76.49206 4.4565 9.72494 48.79422 -4.89214 -4.38979 -19.04996 -8.24317 -5.07956 -3.43616 52.20138 8.43323 3.36085 -24.12917 -9.51286 5.14418 3.52866
0.00226 5e-05 0.00043 172.71098 -44.13105 0.00295 55.68782 1.00653 2.39482 -6.32188 -2.59935 -0.11502 122.74914 -73.45956 -89.72777 6.76816 74.09237 1.35955 -7.63825 154.16179 75.87739 88.36993 7.5854 -80.68531 4.08297 9.85844 48.76167 -4.92875 -4.50292 -19.04931 -8.23709 -5.07608 -3.43079 52.16517 8.46591 3.60021 -24.13078 -9.49618 5.12985 3.51767
0.00244 1e-05 0.00051 172.71653 -44.08623 0.02789 55.64746 0.99224 2.41896 -6.39944 -2.55656 -0.11633 120.49512 -73.69351 -89.80451 6.55443 74.0149 1.23639 -7.37974 151.98508 76.34198 89.31355 7.33413 -83.48978 3.28912 9.75282 48.73917 -4.95846 -4.54382 -19.05745 -8.23424 -5.07698 -3.42892 52.13552 8.46523 3.70138 -24.13685 -9.48926 5.12323 3.51307
0.00271 -0.00014 0.00059 172.73654 -44.03467 0.08075 55.59333 0.96811 2.49242 -6.47512 -2.5249 -0.11706 114.04731 -74.07945 -90.10896 6.31279 73.94394 0.58237 -7.02146 142.76961 77.32883 89.8481 6.9554 -82.2242 1.26766 9.07146 48.74093 -4.96158 -4.33159 -19.08743 -8.24786 -5.09638 -3.44134 52.12245 8.35854 3.38214 -24.15523 -9.51827 5.14292 3.5297
0.00303 -0.00032 0.00066 172.75958 -43.98201 0.14147 55.53117 0.9424 2.58842 -6.53753 -2.49626 -0.11767 105.99023 -74.47122 -89.99625 6.06469 73.78174 -0.30435 -6.59514 130.91956 78.42622 89.72887 6.53636 -79.54081 -1.15344 8.13869 48.75378 -4.95733 -4.04656 -19.12665 -8.26431 -5.11978 -3.45702 52.11648 8.22087 2.93107 -24.17806 -9.55557 5.16949 3.55212
0.00334 -0.0005 0.00072 172.77807 -43.93206 0.19543 55.47003 0.91974 2.67991 -6.59165 -2.46279 -0.11833 98.57467 -74.8074 -89.38516 5.82618 73.52344 -1.139 -6.15588 120.18008 79.3804 89.19411 6.14715 -77.52746 -3.31995 7.26176 48.76492 -4.9578 -3.81036 -19.16329 -8.27627 -5.13853 -3.4692 52.10892 8.10736 2.56803 -24.19877 -9.58284 5.1894 3.56937
0.00361 -0.00064 0.00081 172.8093 -43.87318 0.26238 55.42106 0.8879 2.74802 -6.70712 -2.44467 -0.1188 91.48688 -75.38429 -91.51518 5.55826 73.80057 -1.7618 -5.88478 109.7413 80.74464 91.51546 5.70711 -75.42733 -5.79234 6.61358 48.76232 -4.95347 -3.51358 -19.19332 -8.30098 -5.16858 -3.4894 52.09467 7.95224 2.08865 -24.21991 -9.63576 5.22383 3.59707
